<?xml version="1.0" standalone="no"?>
<!DOCTYPE svg PUBLIC "-//W3C//DTD SVG 20010904//EN"
 "http://www.w3.org/TR/2001/REC-SVG-20010904/DTD/svg10.dtd">
<svg version="1.0" xmlns="http://www.w3.org/2000/svg"
 width="1000.000000pt" height="1000.000000pt" viewBox="0 0 1000.000000 1000.000000"
 preserveAspectRatio="xMidYMid meet">
<metadata>
Created by potrace 1.11, written by Peter Selinger 2001-2013
</metadata>
<g transform="translate(0.000000,1000.000000) scale(0.100000,-0.100000)"
fill="#000000" stroke="none">
<path d="M5157 9894 c-1 -1 -54 -4 -117 -7 -63 -4 -131 -9 -150 -12 -19 -3
-52 -7 -73 -10 -42 -5 -206 -47 -247 -63 l-25 -9 33 -8 c72 -15 185 -56 254
-90 76 -38 153 -97 273 -209 68 -64 71 -66 115 -61 102 11 296 18 473 19 103
0 186 3 185 7 -2 4 -34 42 -73 85 -214 240 -281 293 -409 327 -57 15 -231 38
-239 31z"/>
<path d="M5902 9810 l-54 -5 64 -41 c56 -37 192 -167 291 -279 l35 -39 163 1
c90 1 182 -2 204 -7 154 -36 165 -38 157 -26 -4 6 -37 47 -73 91 -36 44 -74
93 -84 108 -22 33 -121 105 -188 136 -46 21 -132 44 -209 56 -51 8 -242 11
-306 5z"/>
<path d="M3930 9765 c-120 -25 -257 -64 -356 -101 -100 -37 -344 -153 -344
-163 0 -4 54 -6 119 -5 258 1 484 -38 823 -143 l116 -36 82 22 c97 27 108 29
180 41 53 9 75 12 205 26 33 4 69 8 80 9 11 1 33 3 49 4 29 1 28 2 -30 47
-195 153 -406 255 -579 279 -22 3 -53 9 -70 12 -16 4 -39 7 -50 8 -126 12
-168 12 -225 0z"/>
<path d="M7162 9273 c167 -232 216 -334 288 -598 22 -81 32 -102 51 -112 13
-7 84 -39 157 -72 157 -70 212 -102 332 -193 48 -37 90 -65 92 -63 8 9 -1 171
-18 295 -10 74 -54 229 -95 335 -35 92 -43 103 -91 140 -147 113 -404 257
-578 323 -109 42 -201 72 -219 72 -6 0 30 -57 81 -127z"/>
<path d="M3047 9305 c-1 -2 -42 -5 -92 -9 -213 -14 -417 -63 -649 -157 -327
-133 -567 -281 -750 -462 -60 -59 -106 -110 -103 -113 3 -4 37 1 74 10 37 9
79 19 93 21 14 3 36 7 50 10 42 9 66 13 117 21 26 3 57 8 68 10 57 11 160 17
346 18 l207 1 58 46 c81 62 373 281 404 302 14 9 45 31 70 48 83 59 225 132
398 204 61 26 112 49 112 51 0 4 -398 2 -403 -1z"/>
<path d="M6317 9283 c-2 -1 -36 -3 -75 -4 -39 -1 -69 -5 -66 -10 3 -5 37 -33
77 -64 208 -159 315 -257 439 -403 44 -50 83 -90 87 -87 13 7 257 -33 366 -60
121 -30 118 -30 110 -2 -48 170 -179 428 -249 491 -83 75 -173 109 -336 127
-87 10 -347 19 -353 12z"/>
<path d="M5587 9233 c-1 0 -38 -4 -82 -7 -44 -3 -100 -8 -125 -11 -25 -2 -72
-7 -105 -9 -116 -10 -190 -17 -240 -22 -50 -5 -66 -7 -140 -18 -22 -4 -58 -8
-80 -11 -22 -3 -71 -11 -109 -18 l-70 -13 135 -78 c74 -43 148 -86 164 -96
217 -126 310 -193 453 -323 75 -70 84 -73 142 -57 42 11 255 47 325 54 51 6
146 11 405 22 80 3 146 7 148 8 1 2 -80 86 -180 187 -201 203 -280 263 -459
348 -76 37 -114 50 -142 48 -21 -1 -39 -3 -40 -4z"/>
<path d="M3800 9159 c-30 -4 -64 -10 -75 -13 -11 -3 -38 -10 -60 -15 -61 -16
-219 -74 -325 -121 -256 -112 -521 -281 -653 -416 l-47 -49 27 -7 c16 -4 110
-25 210 -48 225 -50 256 -61 577 -199 l259 -112 46 22 c162 77 285 133 331
149 19 7 49 19 65 26 51 22 245 79 333 99 9 2 100 23 202 46 229 51 212 47
233 48 9 1 17 5 17 10 0 20 -533 379 -690 466 -195 107 -301 134 -450 114z"/>
<path d="M8240 8800 c0 -6 11 -50 24 -98 13 -48 28 -107 32 -132 4 -25 8 -47
9 -50 6 -28 16 -133 21 -210 2 -52 6 -95 7 -95 1 -1 44 -30 96 -64 189 -126
249 -184 366 -350 32 -46 52 -67 56 -58 4 7 10 50 14 97 3 47 8 110 10 140 8
100 6 214 -4 267 -18 94 -102 228 -196 315 -66 62 -225 155 -360 213 -22 9
-48 21 -57 26 -12 6 -18 6 -18 -1z"/>
<path d="M6950 8423 c65 -136 227 -493 295 -653 15 -36 38 -79 51 -96 29 -39
126 -90 284 -149 69 -26 139 -53 155 -60 155 -69 211 -92 214 -90 1 2 -4 32
-13 67 -169 685 -165 670 -199 701 -107 98 -218 161 -367 211 -143 47 -375
106 -420 106 -18 0 -18 -1 0 -37z"/>
<path d="M6188 8415 c-2 -1 -48 -5 -103 -8 -169 -10 -335 -33 -335 -45 0 -4
22 -23 47 -42 120 -89 281 -266 422 -463 35 -48 73 -94 84 -101 21 -14 63 -21
177 -31 59 -6 95 -9 235 -24 50 -6 124 -13 165 -16 41 -3 83 -8 93 -11 9 -3
17 0 17 6 0 29 -126 385 -165 468 -52 110 -132 239 -152 247 -8 3 -90 8 -181
11 -92 3 -197 7 -234 8 -37 2 -69 2 -70 1z"/>
<path d="M5147 8324 c-1 -1 -33 -5 -72 -8 -71 -7 -131 -15 -290 -42 -127 -21
-339 -91 -565 -187 -91 -38 -182 -76 -202 -85 -21 -8 -38 -18 -38 -21 0 -3 37
-21 83 -40 162 -67 381 -185 453 -244 10 -9 39 -32 64 -52 90 -74 254 -216
275 -239 6 -6 25 -24 42 -39 l30 -28 199 100 c223 112 341 160 622 251 106 34
192 66 190 70 -2 5 -41 56 -87 115 -110 140 -208 238 -389 388 l-82 68 -115
-2 c-63 -2 -116 -4 -118 -5z"/>
<path d="M1629 8232 c-327 -151 -497 -279 -670 -507 -171 -224 -348 -519 -442
-733 -33 -76 -137 -340 -137 -349 0 -3 10 7 22 23 13 16 28 34 34 39 6 6 39
46 75 90 122 153 292 328 404 417 75 59 247 169 331 211 51 26 51 27 84 119
50 146 111 264 206 404 48 71 91 131 96 132 4 2 8 8 8 13 0 5 26 46 58 91 71
100 75 108 65 108 -4 0 -64 -27 -134 -58z"/>
<path d="M2159 8238 c-110 -86 -234 -210 -307 -307 -89 -117 -173 -327 -209
-523 -22 -118 -24 -397 -4 -478 36 -146 75 -244 94 -234 20 12 235 183 362
288 66 55 183 161 260 237 77 76 156 150 176 166 19 15 42 35 51 43 24 24 253
206 322 255 134 96 116 85 252 163 56 31 147 80 202 107 56 27 102 52 102 55
0 15 -613 200 -745 225 -58 11 -70 13 -121 19 -108 13 -163 17 -272 20 l-114
3 -49 -39z"/>
<path d="M9055 7999 c10 -77 5 -282 -10 -357 -2 -14 8 -24 43 -41 26 -12 95
-54 155 -93 59 -39 110 -68 114 -65 9 9 5 111 -8 182 -16 95 -82 216 -159 292
-36 36 -82 79 -103 95 l-38 30 6 -43z"/>
<path d="M8010 7995 c0 -13 6 -48 14 -77 8 -29 27 -96 41 -148 14 -52 51 -191
80 -309 30 -118 58 -218 62 -222 5 -4 78 -31 164 -58 85 -28 188 -64 229 -81
40 -17 76 -28 79 -24 3 3 6 101 5 217 -1 277 -21 360 -117 474 -96 116 -326
226 -514 247 -40 4 -43 3 -43 -19z"/>
<path d="M3635 7748 c-96 -31 -342 -140 -355 -158 -3 -3 -12 -9 -20 -12 -48
-18 -254 -183 -610 -488 -269 -231 -363 -298 -475 -340 l-30 -12 37 -19 c68
-35 332 -117 448 -140 76 -14 157 -22 240 -23 110 -1 150 2 235 18 52 9 93 16
130 21 83 12 323 76 414 110 145 54 254 109 486 245 111 65 114 67 304 175
l153 88 -33 32 c-201 188 -469 384 -604 442 -41 17 -125 46 -145 49 -34 5
-109 16 -125 19 -11 1 -33 -2 -50 -7z"/>
<path d="M6490 7503 c0 -4 24 -89 54 -188 29 -99 75 -254 101 -345 27 -91 49
-166 50 -167 1 -2 44 -5 96 -8 52 -3 105 -7 119 -10 14 -2 49 -7 79 -10 30 -4
63 -9 75 -11 12 -2 37 -6 56 -10 19 -3 86 -17 148 -31 63 -13 116 -22 119 -19
4 3 0 45 -7 93 -7 49 -14 95 -15 103 -7 56 -24 177 -30 210 -3 14 -7 41 -9 60
-2 19 -7 60 -11 90 -9 83 -11 86 -73 113 -130 57 -204 73 -492 107 -96 11
-194 23 -217 26 -24 3 -43 2 -43 -3z"/>
<path d="M9010 7496 c0 -2 -9 -48 -20 -102 -11 -55 -23 -110 -25 -124 -2 -14
-14 -68 -25 -120 -11 -52 -20 -102 -20 -111 0 -9 21 -24 53 -37 127 -53 312
-205 392 -323 17 -24 38 -52 47 -63 16 -18 17 -17 33 20 62 145 78 245 60 385
-9 76 -13 89 -43 154 -36 77 -127 169 -220 225 -59 35 -232 107 -232 96z"/>
<path d="M6045 7479 c-27 -3 -68 -9 -90 -12 -50 -7 -188 -47 -297 -86 -194
-69 -231 -83 -325 -122 -54 -22 -122 -49 -151 -61 l-53 -21 23 -21 c13 -12 59
-50 103 -86 44 -35 82 -67 85 -70 3 -3 30 -25 60 -50 47 -38 116 -100 180
-161 38 -36 128 -99 162 -113 26 -11 61 -14 132 -11 53 2 100 7 105 9 4 3 30
8 57 12 52 7 61 8 139 24 56 11 90 17 149 25 23 4 50 8 61 10 11 2 40 4 64 4
l43 1 -7 38 c-14 80 -153 464 -214 593 -24 50 -40 71 -64 82 -40 20 -98 25
-162 16z"/>
<path d="M7669 7248 c-1 -18 -3 -44 -5 -58 -5 -37 -5 -239 1 -290 5 -55 44
-208 80 -315 26 -80 76 -217 80 -223 2 -2 31 4 66 12 95 21 177 29 349 31
l155 2 -3 32 c-7 67 -74 279 -118 370 -46 98 -103 182 -158 233 -43 39 -179
128 -246 160 -79 37 -178 78 -190 78 -5 0 -11 -15 -11 -32z"/>
<path d="M1227 7195 c-134 -81 -234 -167 -341 -295 -160 -191 -252 -367 -285
-540 -17 -93 -6 -282 22 -385 65 -233 181 -459 307 -599 152 -170 445 -393
540 -413 30 -5 31 -5 25 23 -4 16 -11 40 -15 54 -10 28 -47 172 -53 210 -3 14
-12 63 -21 110 -8 47 -18 108 -21 135 -3 28 -8 61 -10 75 -19 105 -23 261 -11
373 13 127 82 321 153 430 14 22 15 31 6 46 -7 10 -34 59 -61 108 -95 171
-128 269 -152 453 -6 47 -13 101 -15 120 -3 19 -6 56 -7 83 0 26 -2 47 -2 47
-1 0 -27 -16 -59 -35z"/>
<path d="M4685 6986 c-258 -133 -307 -161 -553 -320 -290 -187 -353 -223 -480
-276 -66 -28 -98 -46 -89 -51 18 -11 277 -97 307 -103 14 -2 46 -9 71 -15 114
-26 398 -32 534 -11 88 13 204 42 520 130 387 107 546 153 543 155 -2 1 -111
92 -243 201 -268 223 -335 275 -415 326 l-55 36 -140 -72z"/>
<path d="M9679 7040 c0 -3 -2 -12 -3 -20 -2 -8 -6 -38 -10 -67 -16 -133 -103
-407 -162 -510 -13 -23 -24 -46 -24 -51 0 -5 38 -80 84 -167 80 -149 125 -271
126 -336 1 -24 1 -24 16 -4 37 49 145 285 158 345 18 86 6 332 -20 422 -3 10
-7 29 -10 42 -10 57 -49 167 -86 241 -34 70 -66 119 -69 105z"/>
<path d="M8546 6892 c-2 -4 8 -73 24 -152 30 -157 37 -200 46 -300 4 -36 8
-72 10 -80 1 -8 3 -18 3 -22 1 -4 18 -16 39 -27 35 -18 119 -97 160 -151 10
-14 53 -75 94 -137 l75 -112 56 117 c30 64 71 151 90 192 19 41 46 99 60 129
l25 53 -19 35 c-37 65 -53 88 -103 147 -74 87 -93 104 -176 161 -80 54 -193
106 -300 136 -74 22 -77 22 -84 11z"/>
<path d="M6740 6620 c0 -13 52 -170 85 -255 52 -137 95 -206 185 -295 73 -73
244 -201 267 -200 5 0 17 20 27 43 70 149 165 266 284 347 29 19 52 38 52 41
0 14 -204 142 -302 189 -107 52 -226 85 -413 114 -163 25 -185 27 -185 16z"/>
<path d="M6160 6487 c-3 -3 -27 -8 -55 -11 -98 -11 -229 -68 -371 -162 -119
-79 -119 -77 -22 -109 109 -36 191 -77 318 -160 266 -173 475 -253 674 -260
78 -3 228 14 240 26 3 2 -18 29 -46 59 -175 192 -209 251 -309 538 -14 40 -27
62 -38 63 -9 0 -25 3 -36 5 -29 8 -349 17 -355 11z"/>
<path d="M1811 6435 c-17 -19 -38 -49 -46 -65 -13 -25 -66 -205 -65 -220 1 -3
-2 -27 -5 -55 -13 -111 -15 -135 -16 -252 -1 -155 5 -224 37 -428 11 -72 66
-270 90 -327 77 -185 200 -346 374 -492 76 -64 191 -146 205 -146 4 0 4 11 1
26 -16 60 -36 228 -43 343 -14 248 -8 343 31 527 18 88 101 307 153 409 59
114 110 185 198 272 88 86 159 137 237 169 52 21 61 34 26 35 -13 0 -30 2 -38
4 -8 2 -64 13 -125 24 -60 12 -119 23 -130 25 -11 2 -40 7 -65 11 -25 4 -54 9
-65 11 -11 2 -55 11 -98 19 -42 8 -107 21 -142 30 -36 8 -79 17 -97 20 -17 3
-35 8 -40 11 -4 3 -16 7 -25 9 -42 8 -104 25 -186 49 -115 34 -128 33 -166 -9z"/>
<path d="M9335 6207 c-10 -23 -50 -107 -88 -187 -177 -371 -172 -352 -134
-510 27 -107 28 -115 46 -210 18 -98 21 -114 27 -182 4 -38 10 -68 13 -68 6 0
87 143 158 277 153 293 188 513 114 713 -36 95 -76 172 -101 195 -15 13 -18
11 -35 -28z"/>
<path d="M8098 6195 c-2 -1 -34 -5 -73 -8 -99 -8 -158 -24 -255 -69 -67 -32
-100 -56 -155 -112 -96 -97 -135 -174 -183 -359 -10 -38 -9 -304 1 -342 3 -11
10 -40 16 -65 27 -118 101 -282 166 -367 47 -62 177 -195 406 -415 338 -324
431 -486 509 -885 69 -352 120 -442 279 -489 70 -21 109 -58 167 -161 74 -133
138 -193 243 -230 50 -17 162 -11 195 11 35 22 91 139 221 456 150 365 243
663 279 890 3 19 8 49 12 65 17 91 50 335 45 335 -4 0 -13 -28 -20 -62 -13
-68 -61 -215 -93 -288 -101 -231 -193 -313 -348 -313 -155 -1 -284 94 -370
271 -34 70 -74 196 -89 277 -6 33 -13 70 -15 82 -5 22 -14 102 -21 178 -2 22
-7 87 -10 145 -4 58 -8 119 -10 135 -1 17 -5 60 -9 96 -4 36 -8 76 -11 90 -2
13 -9 58 -15 99 -95 604 -368 981 -742 1026 -67 7 -117 11 -120 9z"/>
<path d="M5127 6054 c-1 -1 -42 -4 -92 -7 -384 -26 -815 -252 -1126 -593 -175
-192 -311 -479 -365 -774 -25 -130 -25 -476 -1 -603 34 -178 85 -328 154 -450
18 -33 33 -61 33 -63 0 -15 115 -158 168 -208 140 -136 325 -223 532 -251 66
-8 219 -6 263 4 20 5 37 7 37 4 0 -2 22 8 49 22 72 39 94 75 96 153 3 84 -19
155 -112 367 -104 236 -125 302 -142 436 -16 125 13 287 69 386 92 163 213
238 485 300 124 28 196 37 295 36 163 0 290 -28 435 -98 228 -109 440 -303
700 -640 333 -431 619 -675 870 -738 123 -31 352 -6 471 53 84 40 126 115 126
220 0 79 -3 94 -37 195 -57 165 -145 311 -296 490 -51 61 -102 119 -112 130
-10 11 -64 73 -120 138 -87 101 -105 117 -131 117 -43 0 -165 36 -259 76 -264
113 -344 183 -618 534 -269 345 -390 455 -654 586 -155 78 -320 132 -480 159
-36 6 -234 22 -238 19z"/>
<path d="M236 5961 c-121 -196 -188 -358 -223 -536 -10 -49 -10 -269 0 -348
20 -164 54 -341 108 -561 22 -88 41 -162 43 -164 4 -3 10 22 33 143 8 44 67
232 93 295 64 161 189 369 266 442 24 23 44 46 44 51 0 5 -8 21 -19 35 -68 99
-113 205 -210 502 l-77 234 -58 -93z"/>
<path d="M3280 6034 c-246 -53 -461 -264 -565 -554 -43 -122 -77 -315 -78
-445 -1 -62 18 -209 33 -267 l12 -43 20 25 c150 189 268 317 413 445 55 48
168 152 250 230 232 220 395 355 558 460 42 28 77 53 77 56 0 6 -146 49 -235
69 -159 36 -381 47 -485 24z"/>
<path d="M9729 5745 c0 -16 -2 -41 -5 -55 -2 -14 -9 -56 -15 -95 -36 -230
-119 -441 -238 -610 -84 -119 -105 -153 -131 -210 -35 -76 -50 -142 -54 -230
-7 -167 77 -267 238 -282 122 -11 262 33 325 103 34 36 97 160 105 204 2 14 7
32 10 41 4 8 13 55 20 105 13 87 14 398 2 454 -3 14 -9 41 -12 60 -18 109
-123 353 -213 497 -30 47 -31 48 -32 18z"/>
<path d="M7138 5645 c-1 -2 -75 -6 -163 -9 -180 -7 -372 -17 -395 -22 -8 -1
-39 -3 -68 -3 -30 -1 -52 -5 -50 -10 7 -22 278 -298 353 -360 91 -75 133 -100
225 -132 68 -23 180 -49 180 -42 0 2 -9 39 -20 82 -27 102 -29 112 -37 201 -8
92 -8 94 0 202 5 68 4 87 -7 91 -8 3 -16 4 -18 2z"/>
<path d="M692 4979 c-244 -342 -351 -682 -306 -964 34 -214 114 -384 250 -533
213 -232 493 -387 839 -462 140 -30 179 -34 172 -18 -3 7 -22 51 -42 98 -53
124 -111 297 -150 447 -35 135 -43 174 -71 379 -20 148 -6 452 26 565 6 19 10
35 10 36 0 1 -51 32 -112 69 -236 142 -353 229 -501 376 -37 38 -69 68 -70 68
-1 0 -22 -28 -45 -61z"/>
<path d="M3155 4899 c-90 -66 -274 -252 -348 -352 -71 -96 -127 -200 -127
-236 0 -45 55 -115 229 -290 145 -146 280 -269 456 -416 62 -52 68 -54 51 -13
-76 174 -142 374 -182 553 -25 109 -32 198 -29 375 2 107 6 211 9 230 25 160
28 200 19 200 -4 0 -39 -23 -78 -51z"/>
<path d="M1712 4419 c-54 -280 -45 -571 29 -893 41 -180 104 -309 197 -405 81
-83 176 -139 377 -223 140 -59 440 -168 461 -168 8 0 1 25 -23 76 -40 88 -130
322 -143 374 -5 19 -16 60 -24 90 -9 30 -23 96 -31 145 -9 50 -18 101 -20 115
-15 82 -35 236 -41 305 -4 44 -11 85 -16 92 -5 6 -66 48 -136 94 -244 157
-338 223 -472 327 -74 58 -138 110 -141 115 -4 6 -12 -14 -17 -44z"/>
<path d="M2680 3909 c88 -459 163 -733 272 -986 60 -140 74 -161 142 -205 161
-104 381 -182 606 -214 62 -9 469 -13 499 -5 22 6 21 9 -33 50 -161 125 -423
439 -581 696 -65 107 -76 118 -164 167 -42 23 -89 49 -106 58 -16 9 -71 38
-120 63 -131 67 -246 153 -381 282 -17 17 -56 54 -87 84 l-55 53 8 -43z"/>
<path d="M654 3048 c12 -64 14 -73 25 -113 5 -22 13 -53 15 -70 11 -60 84
-302 114 -377 59 -146 163 -292 323 -450 189 -186 346 -274 544 -303 22 -4 56
-10 75 -15 64 -16 305 -50 452 -65 l58 -6 -51 88 c-63 107 -178 335 -214 423
-32 79 -92 224 -110 265 -7 17 -21 51 -31 77 l-19 47 -90 21 c-283 66 -489
125 -580 165 -93 41 -227 127 -373 237 -142 107 -144 109 -138 76z"/>
<path d="M2010 2797 c0 -6 59 -173 85 -242 46 -119 109 -251 229 -475 33 -63
65 -124 71 -134 8 -15 49 -29 185 -63 96 -23 184 -44 195 -47 11 -2 153 -38
315 -81 296 -77 314 -82 359 -92 l24 -6 -23 34 c-13 19 -27 36 -30 39 -25 20
-350 516 -350 534 0 2 -20 35 -45 73 -25 37 -45 72 -45 76 0 22 -54 76 -83 83
-18 3 -147 39 -288 79 -265 76 -390 121 -521 186 -43 22 -78 38 -78 36z"/>
<path d="M3246 2358 c18 -30 132 -190 197 -278 216 -292 351 -428 524 -526 83
-47 78 -47 263 -23 47 6 100 13 118 15 18 2 41 5 50 8 16 5 29 7 115 21 17 3
118 24 222 45 208 44 342 80 418 114 l49 21 -118 58 c-66 32 -126 62 -134 67
-8 5 -126 72 -262 149 -254 143 -246 139 -388 156 -19 3 -64 7 -100 10 -36 3
-81 7 -100 10 -19 2 -64 7 -100 10 -134 13 -157 15 -225 26 -38 6 -104 19
-145 29 -41 11 -88 21 -105 24 -16 3 -85 21 -153 41 -141 40 -136 39 -126 23z"/>
<path d="M8751 1898 c-127 -78 -610 -323 -728 -369 -14 -5 -23 -17 -24 -31 -4
-157 -31 -289 -81 -403 -21 -49 -42 -96 -45 -104 -12 -27 259 178 412 312 137
120 485 474 573 582 32 40 43 86 20 84 -7 -1 -64 -33 -127 -71z"/>
<path d="M2650 1573 c52 -86 167 -253 229 -333 76 -99 289 -314 410 -415 95
-79 72 -76 276 -45 176 27 288 48 405 75 8 2 38 9 65 15 28 6 59 13 70 16 11
2 69 16 130 30 l109 27 -35 13 c-143 49 -300 156 -523 358 -76 69 -104 83
-196 101 -14 2 -119 25 -235 49 -213 45 -646 134 -699 143 l-29 5 23 -39z"/>
<path d="M5485 1539 c-16 -5 -39 -11 -50 -13 -17 -3 -101 -24 -420 -102 -115
-28 -288 -59 -385 -69 -36 -3 -78 -8 -95 -10 -31 -4 -190 -17 -212 -18 -7 0
-13 -1 -13 -3 0 -1 44 -35 98 -76 288 -221 510 -335 764 -393 l66 -15 109 36
c93 31 162 57 248 93 11 5 76 36 145 70 114 56 167 84 344 183 32 18 70 39 85
47 14 8 28 18 29 23 2 4 9 8 17 8 7 0 18 6 24 13 9 11 -15 19 -122 41 -232 48
-323 76 -479 147 -59 27 -111 49 -115 48 -5 0 -21 -5 -38 -10z"/>
<path d="M7740 1430 c-52 -27 -222 -77 -360 -105 -58 -12 -68 -19 -100 -73
-150 -250 -293 -426 -467 -573 -50 -42 -90 -79 -88 -81 11 -11 223 7 325 27
14 3 34 7 46 9 305 58 585 311 671 606 20 68 31 211 16 209 -4 -1 -24 -9 -43
-19z"/>
<path d="M1925 1238 c232 -236 259 -260 350 -313 164 -96 438 -183 655 -209
135 -16 156 -19 163 -23 4 -2 7 0 7 5 0 5 -35 38 -77 74 -90 75 -198 191 -372
401 -68 81 -128 147 -134 148 -7 0 -23 2 -37 3 -14 2 -90 7 -170 10 -80 4
-176 9 -215 11 -38 2 -119 6 -180 10 l-109 5 119 -122z"/>
<path d="M6395 1173 c-264 -199 -432 -308 -639 -412 -101 -50 -101 -50 24 -76
120 -25 386 -34 555 -19 190 17 428 212 673 553 30 43 41 68 25 58 -23 -14
-261 -22 -338 -12 -35 4 -109 15 -133 19 -10 2 -84 -48 -167 -111z"/>
<path d="M4375 800 c-150 -47 -259 -80 -280 -85 -44 -9 -62 -13 -105 -25 -25
-7 -54 -14 -65 -16 -11 -2 -31 -6 -45 -9 -14 -3 -34 -7 -45 -9 -11 -3 -54 -12
-95 -21 -41 -9 -88 -19 -105 -22 -16 -3 -31 -6 -33 -8 -8 -8 268 -155 413
-220 100 -44 214 -84 320 -111 219 -56 384 -6 780 237 91 56 164 104 161 106
-2 2 -16 6 -32 9 -16 2 -40 7 -54 9 -14 3 -38 8 -55 11 -185 33 -361 83 -490
139 -125 55 -141 55 -270 15z"/>
<path d="M5575 499 c-50 -53 -204 -151 -380 -245 -122 -65 -148 -81 -138 -87
9 -6 201 -34 288 -42 33 -4 76 -8 95 -10 55 -7 265 -7 307 0 145 24 271 63
398 125 97 47 237 142 282 191 l22 24 -192 -1 c-173 -1 -309 6 -407 21 -50 8
-211 35 -235 40 -11 3 -29 -5 -40 -16z"/>
</g>
</svg>
