<!DOCTYPE svg PUBLIC "-//W3C//DTD SVG 1.1//EN" "http://www.w3.org/Graphics/SVG/1.1/DTD/svg11.dtd">
<svg width="100%" height="100%" viewBox="0 0 1000 1000" version="1.1" xmlns="http://www.w3.org/2000/svg" xmlns:xlink="http://www.w3.org/1999/xlink" xml:space="preserve" xmlns:serif="http://www.serif.com/" style="fill-rule:evenodd;clip-rule:evenodd;stroke-linejoin:round;stroke-miterlimit:2;" id="pangol">
    <g transform="matrix(3.82627,0,0,3.82627,-1354.94,-793.298)">
        <g transform="matrix(1,0,0,1,531.083,211.416)">
            <path d="M0,11.5C0,11.5 -3.428,10.612 -6.5,10.31C-8.743,10.09 -13.875,10.494 -13.875,10.494C-13.875,10.494 -18.424,5.12 -21,3.125C-23.576,1.13 -24.239,1.043 -24.239,1.043C-24.239,1.043 -18.375,0 -12,1.5C-6.535,2.786 -3.28,7.038 -4.324,5.959C-5.772,4.461 0,11.5 0,11.5" style="fill:currentColor;fill-rule:nonzero;"/>
        </g>
        <g transform="matrix(1,0,0,1,615.1,354.217)">
            <path d="M0,-4.184C0,-4.184 -3.123,14.563 -10.85,15.503C-16.405,16.18 -24.6,13.283 -25.6,-8.717C-26.6,-30.717 -33.6,-49.717 -52.1,-47.217C-70.6,-44.717 -70.1,-21.967 -60.85,-11.467C-51.6,-0.967 -40.697,3.759 -38.1,20.783C-35.85,35.533 -31.244,32.885 -29.1,34.533C-25.85,37.033 -26.35,40.533 -22.35,43.033C-18.35,45.533 -14.698,44.222 -14.076,43.033C-13.454,41.845 -8.85,32.017 -4.911,20.783C-1.541,11.17 0,-4.184 0,-4.184" style="fill:currentColor;fill-rule:nonzero;"/>
        </g>
        <g transform="matrix(1,0,0,1,547.625,346.837)">
            <path d="M0,-0.587C0.875,0.788 6.432,6.621 10.598,11.787C14.764,16.953 22.575,30.818 12.941,33.809C3.308,36.8 -5.024,36.256 -21.948,13.962C-38.872,-8.332 -52.461,-4.826 -62.625,-1.837C-71.125,0.663 -75.125,9.663 -71.625,20.163C-68.884,28.386 -59.145,40.913 -74.125,40.913C-92.625,40.913 -98.125,25.413 -99.797,20.215C-101.426,15.152 -106.307,-8.876 -86.779,-25.188C-67.251,-41.5 -49.432,-37.049 -37.57,-30.081C-25.072,-22.741 -21.284,-8.878 -10.625,-3.837C-1.375,0.538 0,-0.587 0,-0.587" style="fill:currentColor;fill-rule:nonzero;"/>
        </g>
        <g transform="matrix(1,0,0,1,601.75,297.819)">
            <path d="M0,3.875C0,3.875 3.883,10.781 4.653,12.81C5.422,14.838 5.75,17.625 5.75,17.625C5.75,17.625 9.471,11.383 10.235,8.004C11,4.625 10,-4 7.875,-8.875C5.75,-13.75 5.245,-13.375 5.245,-13.375C5.245,-13.375 5.245,-9.125 2.875,-2.375C1.54,1.429 0,3.875 0,3.875" style="fill:currentColor;fill-rule:nonzero;"/>
        </g>
        <g transform="matrix(1,0,0,1,598.648,258.5)">
            <path d="M0,15.953C0,15.953 -3.906,13.25 -5.152,12.5C-6.398,11.75 -8.167,10.917 -8.167,10.917C-8.167,10.917 -7.615,5.797 -7.642,4.282C-7.68,2.157 -8.023,0 -8.023,0C-8.023,0 -3.543,3.38 -2.301,5.664C-0.352,9.25 -0.352,9.25 0,12.125C0.352,15 0,15.953 0,15.953" style="fill:currentColor;fill-rule:nonzero;"/>
        </g>
        <g transform="matrix(1,0,0,1,554,306.75)">
            <path d="M0,-2.75C0,-2.75 -4,-0.125 -5.625,1.75C-7.25,3.625 -9.625,8.625 -9.625,8.625C-9.625,8.625 -16.25,5 -19,0.75C-21.75,-3.5 -23.875,-11.375 -23.875,-11.375C-23.875,-11.375 -13.75,-10.257 -9.375,-8.378C-5,-6.5 0,-2.75 0,-2.75" style="fill:currentColor;fill-rule:nonzero;"/>
        </g>
        <g transform="matrix(1,0,0,1,541.5,336.375)">
            <path d="M0,-15.188C0,-15.188 -0.562,-10.992 -0.25,-7.626C0.062,-4.259 1.375,0 1.375,0C1.375,0 -3.625,-0.719 -7.125,-2.922C-10.625,-5.125 -18.75,-14.22 -18.75,-14.22C-18.75,-14.22 -15.25,-14.501 -11,-14.751C-6.75,-15.001 0,-15.188 0,-15.188" style="fill:currentColor;fill-rule:nonzero;"/>
        </g>
        <g transform="matrix(1,0,0,1,600.375,272.75)">
            <path d="M0,23.625C0,23.625 -1.88,19.748 -6.966,15.748C-9.83,13.496 -13.271,12.25 -13.271,12.25L-10.75,0C-10.75,0 -5.075,1.353 -1.426,5C1.23,7.655 2.125,9.875 2.375,14.625C2.625,19.375 0,23.625 0,23.625" style="fill:currentColor;fill-rule:nonzero;"/>
        </g>
        <g transform="matrix(1,0,0,1,608.5,358.625)">
            <path d="M0,-40.875C0,-40.875 5.855,-31.575 6.6,-25.172C7.75,-15.293 6.25,-5.25 1.25,-2.625C-3.75,0 -12,-0.625 -11.75,-8.5C-11.5,-16.375 -7.125,-18.344 -3.875,-25.172C-0.625,-32 0,-40.875 0,-40.875" style="fill:currentColor;fill-rule:nonzero;"/>
        </g>
        <g transform="matrix(1,0,0,1,594.5,305.375)">
            <path d="M0,31.625C0,31.625 3.625,25.375 5.125,22.125C6.625,18.875 9.5,12.625 7.625,6.75C5.75,0.875 4.12,0 4.12,0C4.12,0 -1.284,11.482 -2.125,13.125C-3.5,15.812 -2.625,17.642 -1.75,21.017C-0.875,24.392 0,31.625 0,31.625" style="fill:currentColor;fill-rule:nonzero;"/>
        </g>
        <g transform="matrix(1,0,0,1,589.25,287.408)">
            <path d="M0,26.842C0,26.842 -4.25,19.967 -6.375,17.967C-8.5,15.967 -9.625,15.842 -9.625,15.842C-9.625,15.842 -10.1,9.904 -11.125,5.217C-12.266,0 -12.125,0.842 -9.875,1.342C-7.625,1.842 -1.75,3.967 1.875,7.967C5.5,11.967 6,14.023 6,14.023L0,26.842Z" style="fill:currentColor;fill-rule:nonzero;"/>
        </g>
        <g transform="matrix(1,0,0,1,549.573,231.819)">
            <path d="M0,12.887C0,12.887 6.219,15.431 8.719,16.806C11.219,18.181 15.844,21.865 15.844,21.865C15.844,21.865 15.902,16.486 15.064,12.433C14.094,7.742 11.814,2.581 11.814,2.581C11.814,2.581 7.875,-0.882 0,-4.944C-5.146,-7.599 -10.859,-8.978 -10.859,-8.978C-10.859,-8.978 -5.69,-2.369 -3.906,1.181C-1.708,5.556 0,12.887 0,12.887" style="fill:currentColor;fill-rule:nonzero;"/>
        </g>
        <g transform="matrix(1,0,0,1,508,210.375)">
            <path d="M0,11.5C0,11.5 -6.294,4.314 -8.155,2.771C-12.25,-0.625 -19.333,-0.25 -19.333,-0.25C-19.333,-0.25 -26.25,-0.262 -31.144,1.168C-35.336,2.393 -35.375,2.25 -35.375,2.25C-35.375,2.25 -28.125,3.75 -24.369,6.896C-20.829,9.862 -18.687,12.125 -18.687,12.125C-18.687,12.125 -13,11.5 -8.875,11.5L0,11.5Z" style="fill:currentColor;fill-rule:nonzero;"/>
        </g>
        <g transform="matrix(1,0,0,1,521.666,229.708)">
            <path d="M0,12.875C0,12.875 -8,4 -11.625,1.625C-15.25,-0.75 -19.597,-2.5 -19.597,-2.5C-19.597,-2.5 -29.75,-1.625 -35.25,-1.125C-40.75,-0.625 -46.375,0.5 -46.375,0.5C-46.375,0.5 -34.766,7.198 -32.438,8.75C-30,10.375 -24.75,15.375 -24.75,15.375C-24.75,15.375 -17.75,13.625 -12.5,13.375C-7.25,13.125 0,12.875 0,12.875" style="fill:currentColor;fill-rule:nonzero;"/>
        </g>
        <g transform="matrix(1,0,0,1,482.417,215.834)">
            <path d="M0,6.625C0,6.625 -5.875,1.375 -12.125,-0.75C-16.952,-2.391 -23.5,-2.75 -23.5,-2.75C-23.5,-2.75 -29.75,-1.75 -35.12,0.307C-40.377,2.32 -44.375,4.75 -44.375,4.75C-44.375,4.75 -37.25,4 -28.75,5.875C-20.25,7.75 -16.375,9.375 -16.375,9.375C-16.375,9.375 -12.625,8.182 -9,7.591C-5.375,7 0,6.625 0,6.625" style="fill:currentColor;fill-rule:nonzero;"/>
        </g>
        <g transform="matrix(1,0,0,1,528.75,267.625)">
            <path d="M0,-18.375C0,-18.375 3,-14.375 4.875,-9.375C6.75,-4.375 8.125,0.5 8.125,0.5C8.125,0.5 -6.009,-0.805 -9.125,-1.25C-10.875,-1.5 -12,-4.75 -16,-9.5C-20,-14.25 -24.625,-17.625 -24.625,-17.625C-24.625,-17.625 -17.75,-18.875 -12.125,-18.875C-6.5,-18.875 0,-18.375 0,-18.375" style="fill:currentColor;fill-rule:nonzero;"/>
        </g>
        <g transform="matrix(1,0,0,1,585.509,238.772)">
            <path d="M0,27.892C-0.5,28.228 -2.625,23.603 -5.75,20.853C-8.875,18.103 -13.75,15.103 -13.75,15.103C-13.75,15.103 -13.625,11.228 -14.375,6.978C-15.125,2.728 -16.174,-0.336 -16.174,-0.336C-16.174,-0.336 -7.079,3.103 -3.537,7.228C-0.311,10.985 0.957,13.478 0.729,18.603C0.5,23.728 0,27.892 0,27.892" style="fill:currentColor;fill-rule:nonzero;"/>
        </g>
        <g transform="matrix(1,0,0,1,581.11,260.4)">
            <path d="M0,22.139C0,22.139 0.384,14.514 -0.454,10.514C-1.292,6.514 -3.917,3.639 -7.917,1.514C-11.917,-0.611 -16.639,-1.375 -17.623,-1.236C-18.235,-1.15 -16.61,3.225 -15.485,7.85C-14.36,12.475 -12.61,19.225 -12.61,19.225C-12.61,19.225 -7.667,20.625 -5.042,21.632C-2.648,22.551 -3.279,22.303 -0.175,23.514L0,22.139Z" style="fill:currentColor;fill-rule:nonzero;"/>
        </g>
        <g transform="matrix(1,0,0,1,573.625,279.437)">
            <path d="M0,21.874C0,21.874 -3,21.686 -7.375,21.874C-11.75,22.062 -15,23.062 -15,23.062C-15,23.062 -18,15.484 -19,10.312C-19.925,5.524 -19,-1.188 -19,-1.188C-19,-1.188 -10.2,1.827 -6.375,6.187C-1.441,11.812 0,21.874 0,21.874" style="fill:currentColor;fill-rule:nonzero;"/>
        </g>
        <g transform="matrix(1,0,0,1,562,247.417)">
            <path d="M0,28.708L-4.75,9.416C-4.75,9.416 -7.834,5.592 -13.929,3.361C-20.024,1.13 -26.75,0 -26.75,0C-26.75,0 -19.031,16.511 -18,19.5C-17.167,21.916 -13.482,23.297 -9.333,24.75C-5.184,26.203 0,28.708 0,28.708" style="fill:currentColor;fill-rule:nonzero;"/>
        </g>
        <g transform="matrix(1,0,0,1,498.916,292.333)">
            <path d="M0,6.667C0,6.667 -10.583,-2.083 -13.083,-4.166C-15.583,-6.25 -18.667,-8.083 -18.667,-8.083C-18.667,-8.083 -28.083,-3.5 -32.917,-0.416C-37.75,2.667 -44.083,6.917 -46.583,8.167C-49.083,9.417 -52.25,10.5 -52.25,10.5C-52.25,10.5 -44.167,13.667 -40,14.084C-35.833,14.5 -30.333,14.75 -25.833,13.75C-21.333,12.75 0,6.667 0,6.667" style="fill:currentColor;fill-rule:nonzero;"/>
        </g>
        <g transform="matrix(1,0,0,1,535.833,300.583)">
            <path d="M0,16.167C0,16.167 -6.083,18.417 -14,15.417C-21.917,12.417 -22.917,10.417 -28.083,7.667C-30.497,6.383 -34.75,5.167 -34.75,5.167C-34.75,5.167 -28.439,-0.138 -22.583,-1.166C-16.417,-2.25 -10,-0.916 -10,-0.916C-10,-0.916 -7.75,6.5 -6.083,9.084C-4.417,11.667 0,16.167 0,16.167" style="fill:currentColor;fill-rule:nonzero;"/>
        </g>
        <g transform="matrix(1,0,0,1,523.875,274.769)">
            <path d="M0,17.606C-0.625,13.731 -5.625,0.731 -6.625,-0.519C-7.977,-2.208 -11.125,-1.852 -14.875,-1.102C-18.738,-0.33 -26.042,2.398 -30.375,4.148C-34.708,5.898 -35.708,6.398 -35.708,6.398C-35.708,6.398 -30.041,11.147 -27.458,13.231C-24.875,15.314 -21.208,19.814 -18.125,19.814C-15.042,19.814 -12.819,19.421 -9.792,18.814C-9.375,18.731 -0.12,16.865 0,17.606" style="fill:currentColor;fill-rule:nonzero;"/>
        </g>
        <g transform="matrix(1,0,0,1,547.365,272.375)">
            <path d="M0,21.317C0,21.317 -5.493,19.915 -10.115,19.267C-14.737,18.62 -18.237,18.603 -18.237,18.603L-23.74,0C-23.74,0 -15.774,0.864 -11.09,1.512C-6.406,2.161 -2.416,4.305 -2.416,4.305L0,21.317Z" style="fill:currentColor;fill-rule:nonzero;"/>
        </g>
        <g transform="matrix(1,0,0,1,543.958,225.742)">
            <path d="M0,17.55C0,17.55 -3.171,16.571 -6.533,15.925C-8.93,15.464 -13.125,15.05 -13.125,15.05C-13.125,15.05 -16.875,10.175 -20.25,7.3C-23.625,4.425 -28.75,0.55 -28.75,0.55C-28.75,0.55 -21.983,0 -17.477,0.438C-12.681,0.904 -10.635,0.927 -7.562,3.228C-3.125,6.55 0,17.55 0,17.55" style="fill:currentColor;fill-rule:nonzero;"/>
        </g>
        <g transform="matrix(1,0,0,1,494.75,276.584)">
            <path d="M0,-25.667C0,-25.667 6.083,-20.667 8.667,-18C11.25,-15.334 14.75,-10.5 14.75,-10.5C14.75,-10.5 3.583,-7.167 -1.083,-5.084C-5.75,-3 -11.75,0.333 -11.75,0.333C-11.75,0.333 -18.247,-5.766 -23.083,-9.417C-27.5,-12.75 -36.833,-16.5 -36.833,-16.5C-36.833,-16.5 -25.709,-21.589 -20.417,-23C-9.167,-26 0,-25.667 0,-25.667" style="fill:currentColor;fill-rule:nonzero;"/>
        </g>
        <g transform="matrix(1,0,0,1,483.583,237.834)">
            <path d="M0,6.666C0,6.666 -13.667,-3.167 -18.25,-5.501C-22.043,-7.432 -25.917,-10.417 -34.75,-7.501C-42.065,-5.085 -46.917,-2.667 -53.083,1.249C-57.372,3.973 -60.583,7.583 -60.583,7.583C-60.583,7.583 -50.083,9.499 -46,11.249C-41.917,12.999 -32.417,17.083 -32.417,17.083C-32.417,17.083 -24.667,13.166 -19.083,11.249C-13.5,9.333 0,6.666 0,6.666" style="fill:currentColor;fill-rule:nonzero;"/>
        </g>
        <g transform="matrix(1,0,0,1,444.5,244.416)">
            <path d="M0,-18.916C0,-18.916 -12.333,-19.583 -20.667,-17.666C-29,-15.749 -45.167,-9.249 -52.667,0.667C-52.667,0.667 -43.833,-1.583 -38.167,-1.833C-32.5,-2.083 -27.583,-1.833 -27.583,-1.833C-27.583,-1.833 -16.495,-10.534 -12.417,-13.083C-7.75,-15.999 0,-18.916 0,-18.916" style="fill:currentColor;fill-rule:nonzero;"/>
        </g>
        <g transform="matrix(1,0,0,1,474.166,284.426)">
            <path d="M0,-4.259C0,-4.259 -9.083,-12.926 -15.583,-16.176C-20.231,-18.5 -24.5,-18.426 -24.5,-18.426C-24.5,-18.426 -32.667,-16.092 -39.167,-10.842C-45.667,-5.592 -57.083,4.658 -59.667,6.158C-62.25,7.658 -64.083,8.158 -64.083,8.158C-64.083,8.158 -51.75,14.241 -41.25,12.824C-30.75,11.408 -23.333,9.324 -15.5,4.658C-8.689,0.6 0,-4.259 0,-4.259" style="fill:currentColor;fill-rule:nonzero;"/>
        </g>
        <g transform="matrix(1,0,0,1,444.833,286.749)">
            <path d="M0,-27.416C0,-27.416 -14.834,-32.583 -21.167,-33.583C-27.5,-34.583 -33.083,-34.333 -33.083,-34.333C-33.083,-34.333 -41.833,-27.999 -44.833,-21.249C-47.833,-14.499 -48.833,-7.249 -48.25,-1.666C-47.667,3.917 -45.667,7.167 -45.667,7.167C-45.667,7.167 -32.583,-2.833 -29.25,-6.666C-25.917,-10.499 -17.084,-17.416 -12.417,-20.666C-7.75,-23.916 0,-27.416 0,-27.416" style="fill:currentColor;fill-rule:nonzero;"/>
        </g>
        <g transform="matrix(1,0,0,1,400.583,295.583)">
            <path d="M0,-43.75C0,-43.75 -10.917,-39.5 -16.333,-34.5C-22.006,-29.264 -28.75,-18.583 -31.917,-12C-34.001,-7.667 -36.75,0 -36.75,0C-36.75,0 -28.479,-11.201 -21.5,-16.25C-17.583,-19.083 -12.5,-21.667 -12.5,-21.667C-12.5,-21.667 -10.917,-27.833 -7.417,-33C-3.917,-38.167 0,-43.75 0,-43.75" style="fill:currentColor;fill-rule:nonzero;"/>
        </g>
        <g transform="matrix(1,0,0,1,458.916,342.336)">
            <path d="M0,-28.919C0,-28.919 -6.583,-31.462 -13.542,-31.711C-19.266,-31.917 -23.083,-31.086 -28.167,-26.169C-33.25,-21.252 -35.417,-13.752 -35.833,-6.752C-36.125,-1.841 -34.75,2.998 -34.75,2.998C-34.75,2.998 -29.731,-4.128 -23.5,-9.336C-17.667,-14.211 -16.542,-16.211 -10.292,-21.461C-4.042,-26.711 0,-28.919 0,-28.919" style="fill:currentColor;fill-rule:nonzero;"/>
        </g>
        <g transform="matrix(1,0,0,1,389.666,328.873)">
            <path d="M0,-36.289C1.065,-33.143 4.583,-27.372 4.583,-27.372C4.583,-27.372 -0.917,-20.622 -0.083,-9.956C0.607,-1.118 2.5,6.794 3.583,9.628C4.81,12.833 -10.454,2.739 -14.833,-5.539C-20.917,-17.039 -20.917,-23.289 -19.167,-29.206C-17.417,-35.122 -11.25,-42.622 -7.417,-45.539C-3.583,-48.456 -1.917,-49.122 -1.917,-49.122C-1.917,-49.122 -1.75,-41.456 0,-36.289" style="fill:currentColor;fill-rule:nonzero;"/>
        </g>
        <g transform="matrix(1,0,0,1,402.833,352.584)">
            <path d="M0,-53.167C0,-53.167 8.333,-50.667 13.75,-49.584C19.167,-48.5 30.417,-46.5 30.417,-46.5C30.417,-46.5 21.583,-44.417 16.417,-32.5C11.698,-21.618 12.083,-16.25 12.583,-8.5C12.922,-3.251 13.833,0 13.833,0C13.833,0 1.167,-6.834 -2.5,-19.584C-6.167,-32.334 -4.833,-42.917 -3.583,-47.667C-2.333,-52.417 0,-53.167 0,-53.167" style="fill:currentColor;fill-rule:nonzero;"/>
        </g>
        <g transform="matrix(1,0,0,1,438.917,375.918)">
            <path d="M0,-36.75C0,-36.75 -1.798,-27.81 -1,-19.75C-0.167,-11.333 4.917,0 4.917,0C4.917,0 -3.917,-7.083 -9.583,-13C-14.86,-18.51 -14.917,-19.083 -14.75,-20.333C-14.583,-21.583 -12.098,-25.961 -7.667,-30.543C-2.75,-35.626 0,-36.75 0,-36.75" style="fill:currentColor;fill-rule:nonzero;"/>
        </g>
        <g transform="matrix(1,0,0,1,370,335.125)">
            <path d="M0,-4.375C0,-4.375 -2.5,-7.625 -4.375,-12.875C-6.25,-18.125 -8.125,-24.625 -8.125,-24.625C-8.125,-24.625 -15.625,-14.75 -15.875,-5.125C-16.125,4.5 -11.5,20.25 -11.5,20.25C-11.5,20.25 -10.625,12.375 -6.625,4.625C-2.625,-3.125 0,-4.375 0,-4.375" style="fill:currentColor;fill-rule:nonzero;"/>
        </g>
        <g transform="matrix(1,0,0,1,373.447,390.618)">
            <path d="M0,-53.743C0,-53.743 4.169,-48.673 11.154,-44.279C14.439,-42.213 17.802,-40.335 17.802,-40.335C17.802,-40.335 15.098,-32.449 17.577,-19.379C19.588,-8.773 23.886,0 23.886,0C23.886,0 12.732,-1.239 4.845,-6.534C-3.042,-11.83 -8.112,-17.576 -9.464,-28.055C-11.036,-40.235 0,-53.743 0,-53.743" style="fill:currentColor;fill-rule:nonzero;"/>
        </g>
        <g transform="matrix(1,0,0,1,399.083,397.583)">
            <path d="M0,-45.625C0,-45.625 8.125,-39 11.375,-37.125C14.625,-35.25 20,-31.5 20,-31.5C20,-31.5 20.375,-25 22,-16.875C23.625,-8.75 28,0 28,0C28,0 12,-5.25 7.5,-8.75C2.105,-12.945 0.5,-19 -0.75,-28.25C-2,-37.5 0,-45.625 0,-45.625" style="fill:currentColor;fill-rule:nonzero;"/>
        </g>
        <g transform="matrix(1,0,0,1,424,404.392)">
            <path d="M0,-39.059C0,-39.059 7.403,-31.062 12.484,-28.602C17.564,-26.142 22.064,-23.374 22.064,-23.374C22.064,-23.374 26.129,-16.146 31.209,-10.148C36.291,-4.151 40.5,-1.076 40.5,-1.076C40.5,-1.076 31.209,0 22.936,-1.845C14.661,-3.69 9.291,-7.842 9.291,-7.842C9.291,-7.842 6.097,-13.378 3.484,-22.912C0.871,-32.447 0,-39.059 0,-39.059" style="fill:currentColor;fill-rule:nonzero;"/>
        </g>
        <g transform="matrix(1,0,0,1,438.667,429.167)">
            <path d="M0,-22.5C0,-22.5 9.965,-19.324 17,-18.667C29.5,-17.5 31.5,-17.167 31.5,-17.167C31.5,-17.167 37,-14 42,-11.167C47.367,-8.126 51.5,-6.334 51.5,-6.334C46.111,-3.961 44.667,-4.001 34.333,-1.834C27.227,-0.344 21.167,0 21.167,0C21.167,0 16,-2 10.833,-8C5.716,-13.942 0,-22.5 0,-22.5" style="fill:currentColor;fill-rule:nonzero;"/>
        </g>
        <g transform="matrix(1,0,0,1,430.871,417.208)">
            <path d="M0,-13.459C0,-13.459 -9.333,-15.911 -14.387,-17.5C-19.44,-19.089 -24.276,-21.686 -24.276,-21.686C-24.276,-21.686 -21.771,-13.762 -19.108,-8.72C-16.445,-3.678 -13.916,1.119 -13.916,1.119C-13.916,1.119 -5.986,3.01 -1.31,4.217C3.861,5.553 14.077,8.227 14.077,8.227C14.077,8.227 9.25,2.003 5.68,-4.011C2.111,-10.024 0,-13.459 0,-13.459" style="fill:currentColor;fill-rule:nonzero;"/>
        </g>
        <g transform="matrix(1,0,0,1,413.166,388)">
            <path d="M0,37.624C0,37.624 -4.5,30.071 -6.5,25.252C-8.5,20.434 -11.125,14.053 -11.125,14.053C-11.125,14.053 -20.292,12.084 -26.667,10C-33.042,7.916 -42.167,0 -42.167,0C-42.167,0 -39.917,12.03 -37.167,17.5C-34.417,22.97 -25.875,33.066 -17.75,34.89C-9.625,36.713 0,37.624 0,37.624" style="fill:currentColor;fill-rule:nonzero;"/>
        </g>
        <g transform="matrix(1,0,0,1,422.791,449.001)">
            <path d="M0,-22.5C0,-22.5 14.953,-19.496 18.875,-18.625C23.375,-17.625 28.125,-16.625 28.125,-16.625C28.125,-16.625 34.125,-10.75 38.5,-8C42.875,-5.25 45,-5 45,-5C45,-5 32.5,-1.875 26.75,-1C21,-0.125 19.5,0 19.5,0C19.5,0 15.125,-3.375 9.625,-9.125C4.125,-14.875 0,-22.5 0,-22.5" style="fill:currentColor;fill-rule:nonzero;"/>
        </g>
        <g transform="matrix(1,0,0,1,420.125,449.5)">
            <path d="M0,-15.375L-18.875,-16.375C-18.875,-16.375 -14.383,-12.243 -11.875,-9.25C-4.125,0 15.375,1 15.375,1C15.375,1 10.5,-2.625 6.875,-7.125C3.25,-11.625 0,-15.375 0,-15.375" style="fill:currentColor;fill-rule:nonzero;"/>
        </g>
        <g transform="matrix(1,0,0,1,466.708,440.809)">
            <path d="M0,-6.75C0,-6.75 10.625,-7.393 17,-8.999C23.375,-10.607 31.993,-12.643 31.993,-12.643C31.993,-12.643 37.66,-9.643 42.382,-8.571C47.104,-7.5 51,-6.75 51,-6.75C51,-6.75 41.438,-0.964 35.535,1.714C29.632,4.393 24.319,5.893 24.319,5.893C24.319,5.893 19.125,5.249 12.868,2.035C6.611,-1.18 0,-6.75 0,-6.75" style="fill:currentColor;fill-rule:nonzero;"/>
        </g>
        <g transform="matrix(1,0,0,1,448.042,456.972)">
            <path d="M0,-4.097C0,-4.097 9.936,-6.057 14.5,-7.347C20.25,-8.972 23.375,-10.347 24.25,-10.097C25.125,-9.847 31.091,-7.108 35.042,-6.221C39.125,-5.305 44.292,-4.471 44.292,-4.471C36.583,0.279 28.357,6.25 21.292,5.029C12.125,3.445 0,-4.097 0,-4.097" style="fill:currentColor;fill-rule:nonzero;"/>
        </g>
        <g transform="matrix(1,0,0,1,525.208,451.667)">
            <path d="M0,-16.625C0,-16.625 4.875,-15.709 7.625,-15.834C11.292,-16 13.125,-16.334 13.125,-16.334C13.125,-16.334 8.495,-9.496 4.625,-6C-0.542,-1.333 -4.042,-0.5 -4.042,-0.5C-4.042,-0.5 -9.125,0 -14.875,-0.25C-20.625,-0.5 -23,-1.75 -23,-1.75C-23,-1.75 -16.125,-4.75 -10.25,-9C-4.375,-13.25 0,-16.625 0,-16.625" style="fill:currentColor;fill-rule:nonzero;"/>
        </g>
        <g transform="matrix(1,0,0,1,545.25,449.561)">
            <path d="M0,-15.061C0,-15.061 2.75,-15.686 6.75,-16.686C10.75,-17.686 12.375,-18.811 12.375,-18.811C12.375,-18.811 13.208,-15.394 10.583,-9.894C7.958,-4.394 2.083,0.772 -5.083,2.439C-10.716,3.75 -15.75,3.564 -15.75,3.564C-15.75,3.564 -9.5,-1.061 -6.125,-5.686C-2.75,-10.311 0,-15.061 0,-15.061" style="fill:currentColor;fill-rule:nonzero;"/>
        </g>
        <g transform="matrix(1,0,0,1,563.25,431.125)">
            <path d="M0,-2.125C0,-2.125 9.125,-6.375 14,-8.875C18.875,-11.375 22.625,-13.875 22.625,-13.875C22.625,-13.875 23.75,-14.125 23.125,-12.75C22.5,-11.375 13,-1.25 6.875,4C0.75,9.25 -3.625,12 -3.625,12C-3.625,12 -1.125,7.75 -0.625,4C-0.125,0.25 0,-2.125 0,-2.125" style="fill:currentColor;fill-rule:nonzero;"/>
        </g>
        <g transform="matrix(1,0,0,1,522.75,464.812)">
            <path d="M0,-8.062C0,-8.062 -6.25,-7.478 -13.167,-8.228C-18.846,-8.844 -22.25,-9.728 -22.25,-9.728C-22.25,-9.728 -24.25,-7.478 -30,-4.311C-32.573,-2.894 -37,-0.561 -37,-0.561C-37,-0.561 -25.93,1.666 -19.25,0.938C-6.625,-0.437 0,-8.062 0,-8.062" style="fill:currentColor;fill-rule:nonzero;"/>
        </g>
    </g>
</svg>
